<?xml version="1.0" standalone="no"?>
<!DOCTYPE svg PUBLIC "-//W3C//DTD SVG 20010904//EN"
 "http://www.w3.org/TR/2001/REC-SVG-20010904/DTD/svg10.dtd">
<svg version="1.0" xmlns="http://www.w3.org/2000/svg"
 width="190.000000pt" height="190.000000pt" viewBox="0 0 190.000000 190.000000"
 preserveAspectRatio="xMidYMid meet">
<metadata>
Created by potrace 1.11, written by Peter Selinger 2001-2013
</metadata>
<g transform="translate(0.000000,190.000000) scale(0.100000,-0.100000)"
fill="#000000" stroke="none">
<path d="M674 1759 c-38 -50 -79 -103 -92 -119 -52 -63 -192 -245 -192 -250 0
-4 1290 -5 1311 -1 4 0 48 57 98 125 66 91 92 134 97 165 7 46 -8 96 -40 125
-50 45 -57 45 -598 45 l-514 0 -70 -90z"/>
<path d="M986 1291 c-11 -8 -28 -22 -36 -31 -8 -9 -80 -74 -160 -145 -80 -72
-151 -135 -157 -142 -10 -9 5 -37 71 -130 46 -65 118 -166 160 -225 42 -59 76
-110 76 -115 0 -4 -206 -8 -457 -7 -252 0 -463 -1 -469 -3 -6 -2 15 -57 51
-131 34 -70 81 -167 105 -217 23 -50 46 -92 51 -95 15 -10 900 -10 945 0 75
17 136 52 195 110 89 88 126 189 116 315 -7 98 -27 139 -159 328 l-111 160 34
30 c52 46 216 196 279 254 32 31 49 53 40 54 -8 0 -136 1 -284 2 -220 2 -273
-1 -290 -12z"/>
</g>
</svg>
